<?xml version="1.0" encoding="UTF-8"?>
<!DOCTYPE svg PUBLIC "-//W3C//DTD SVG 1.1//EN" "http://www.w3.org/Graphics/SVG/1.1/DTD/svg11.dtd">
<svg xmlns="http://www.w3.org/2000/svg" version="1.1" width="512px" height="512px" style="shape-rendering:geometricPrecision; text-rendering:geometricPrecision; image-rendering:optimizeQuality; fill-rule:evenodd; clip-rule:evenodd" xmlns:xlink="http://www.w3.org/1999/xlink">
<g><path style="opacity:0.992" fill="#cb2e2e" d="M 250.5,84.5 C 275.392,91.2395 287.558,107.573 287,133.5C 281.452,154.635 275.619,175.635 269.5,196.5C 256.833,196.5 244.167,196.5 231.5,196.5C 225.185,176.248 219.018,155.914 213,135.5C 210.897,107.691 223.397,90.6911 250.5,84.5 Z"/></g>
<g><path style="opacity:1" fill="#af2424" d="M 250.5,84.5 C 285.27,85.1045 301.437,102.771 299,137.5C 293.652,157.229 288.152,176.896 282.5,196.5C 278.167,196.5 273.833,196.5 269.5,196.5C 275.619,175.635 281.452,154.635 287,133.5C 287.558,107.573 275.392,91.2395 250.5,84.5 Z"/></g>
<g><path style="opacity:0.999" fill="#e17c33" d="M 231.5,196.5 C 244.167,196.5 256.833,196.5 269.5,196.5C 269.667,269.167 269.5,341.834 269,414.5C 266.981,420.35 263.148,424.35 257.5,426.5C 252.489,426.666 247.489,426.499 242.5,426C 237.243,423.744 233.743,419.91 232,414.5C 231.5,341.834 231.333,269.167 231.5,196.5 Z"/></g>
<g><path style="opacity:1" fill="#cd702c" d="M 269.5,196.5 C 273.833,196.5 278.167,196.5 282.5,196.5C 282.667,269.501 282.5,342.501 282,415.5C 280.5,421 277,424.5 271.5,426C 266.845,426.499 262.179,426.666 257.5,426.5C 263.148,424.35 266.981,420.35 269,414.5C 269.5,341.834 269.667,269.167 269.5,196.5 Z"/></g>
</svg>
